# xmcd CD database file
#
# Track frame offsets:
#	150
#	21439
#	41241
#	59372
#	80355
#	106748
#	133889
#	166008
#	190146
#	221952
#	243933
#
# Disc length: 3535 seconds
#
# Revision: 2
# Processed by: cddbd v1.5.2PL0 Copyright (c) Steve Scherf et al.
# Submitted via: CDex 1.70beta2
#
DISCID=980dcd0b
DTITLE=PLANT (ROBERT) - DREAMLAND
DYEAR=2002
DGENRE=Rock
TTITLE0=FUNNY IN MY MIND (I BELIEVE I'M FIXIN' TO DIE)
TTITLE1=MORNING DEW
TTITLE2=ONE MORE CUP OF COFFEE
TTITLE3=LAST TIME I SAW HER
TTITLE4=SONG TO THE SIREN
TTITLE5=WIN MY TRAIN FARE HOME (IF I EVER GET LUCKY)
TTITLE6=DARKNESS
TTITLE7=RED DRESS
TTITLE8=HEY JOE
TTITLE9=SKIP'S SOMG
TTITLE10=DIRT IN A HOLE
EXTD=YEAR: 2002
EXTT0=
EXTT1=
EXTT2=
EXTT3=
EXTT4=
EXTT5=
EXTT6=
EXTT7=
EXTT8=
EXTT9=
EXTT10=
PLAYORDER=
